<svg width="60" height="51" viewBox="0 0 60 51" fill="none" xmlns="http://www.w3.org/2000/svg">
<path d="M41.1836 47.1449H16.641L4.37098 25.5L16.641 3.85507H41.1836L49.1584 17.9184H53.5293L43.3691 0H14.4555L0 25.5L14.4555 51H43.3691L53.5293 33.0816H49.1584L41.1836 47.1449Z" fill="#0094FF"/>
<path d="M35.8435 37.7232H21.9836L15.0561 25.5L21.9836 13.2794H35.8435L38.4732 17.9184H42.8441L38.029 9.42438H19.7981L10.6852 25.5L19.7981 41.5782H38.029L42.8441 33.0817H38.4732L35.8435 37.7232Z" fill="#0094FF"/>
<path d="M34.2561 26.2685C34.6221 26.7692 34.8099 27.3819 34.7886 28.0058C34.8053 28.482 34.7053 28.955 34.4978 29.3821C34.2903 29.8092 33.9818 30.177 33.6 30.4525C32.8075 31.0539 31.6837 31.3546 30.2284 31.3546H24.3407V19.6532H29.9154C31.2934 19.6532 32.3625 19.9179 33.123 20.4473C33.4871 20.6898 33.7835 21.0241 33.9834 21.4176C34.1833 21.8112 34.2798 22.2507 34.2637 22.6935C34.2739 23.2234 34.1347 23.7452 33.8624 24.197C33.5787 24.6426 33.1784 24.9987 32.7066 25.225C33.3156 25.4036 33.8563 25.7677 34.2561 26.2685ZM27.5381 24.3306H29.605C30.5236 24.3306 30.9829 23.9468 30.9829 23.1793C30.9829 22.4117 30.5236 22.027 29.605 22.0253H27.5381V24.3306ZM31.5079 27.7565C31.5079 26.9649 31.0376 26.5691 30.0971 26.5691H27.5381V28.9747H30.0971C31.0376 28.9747 31.5079 28.5686 31.5079 27.7565Z" fill="#0094FF"/>
<path d="M39.2429 30.8046C38.3096 30.3085 37.5288 29.5597 36.9867 28.6406C36.4493 27.6844 36.1666 26.6018 36.1666 25.5C36.1666 24.3982 36.4493 23.3156 36.9867 22.3594C37.5296 21.4409 38.3101 20.6923 39.2429 20.1954C40.2431 19.6701 41.3555 19.4052 42.4807 19.4244C43.4557 19.4093 44.4229 19.6028 45.3198 19.9924C46.141 20.3544 46.8621 20.9166 47.4195 21.6295L45.3527 23.5339C45.0366 23.1082 44.6282 22.7626 44.1593 22.5241C43.6905 22.2856 43.1739 22.1606 42.6498 22.1589C42.0682 22.1476 41.4938 22.2921 40.9842 22.5779C40.5023 22.8499 40.1086 23.2589 39.8511 23.7549C39.5871 24.2974 39.4497 24.8946 39.4497 25.5C39.4497 26.1054 39.5871 26.7026 39.8511 27.2451C40.1086 27.7418 40.5023 28.1516 40.9842 28.4247C41.4945 28.7085 42.0685 28.852 42.6498 28.8411C43.1739 28.8404 43.6907 28.7164 44.16 28.4788C44.6293 28.2412 45.0383 27.8963 45.3552 27.4712L47.4221 29.3756C46.8646 30.0885 46.1436 30.6507 45.3224 31.0127C44.4255 31.4023 43.4582 31.5958 42.4833 31.5807C41.3567 31.5988 40.2434 31.3321 39.2429 30.8046Z" fill="#0094FF"/>
<path d="M60 19.6532V31.3546H56.7823V22.2772H52.4214V31.3546H49.2239V19.6532H60Z" fill="#0094FF"/>
</svg>
