<svg width="27" height="27" viewBox="0 0 27 27" fill="none" xmlns="http://www.w3.org/2000/svg">
<path fill-rule="evenodd" clip-rule="evenodd" d="M23.0661 3.92377C20.528 1.39482 17.1525 0.00148315 13.5565 0C6.14643 0 0.115746 6.00167 0.112765 13.3782C0.111771 15.7363 0.730737 18.0381 1.90723 20.0671L0 27L7.12671 25.1395C9.09041 26.2055 11.3012 26.7673 13.551 26.768H13.5566C20.9658 26.768 26.9972 20.7658 27 13.3889C27.0015 9.81387 25.6044 6.45255 23.0661 3.92377ZM13.5565 24.5085H13.5518C11.5469 24.5076 9.58055 23.9714 7.86473 22.9584L7.45689 22.7173L3.22779 23.8214L4.3566 19.7179L4.09083 19.2972C2.97229 17.5266 2.38164 15.4802 2.38264 13.379C2.38495 7.24785 7.39761 2.25967 13.5609 2.25967C16.5455 2.26066 19.351 3.41884 21.4606 5.52079C23.5702 7.62275 24.7313 10.4167 24.7303 13.3881C24.7276 19.5198 19.7153 24.5085 13.5565 24.5085ZM19.6855 16.1799C19.3497 16.0125 17.6981 15.204 17.3901 15.0922C17.0825 14.9807 16.8583 14.9251 16.6346 15.2597C16.4105 15.5942 15.7669 16.3473 15.5708 16.5703C15.3748 16.7934 15.1791 16.8214 14.8431 16.654C14.5071 16.4867 13.4248 16.1336 12.1417 14.9947C11.1432 14.1083 10.4691 13.0135 10.273 12.679C10.0773 12.3441 10.2714 12.1807 10.4204 11.9967C10.784 11.5473 11.1482 11.0762 11.2601 10.8532C11.3722 10.6301 11.3161 10.4348 11.232 10.2675C11.1482 10.1003 10.4764 8.4548 10.1965 7.78524C9.92365 7.13364 9.64695 7.22164 9.44063 7.21143C9.2449 7.2017 9.02086 7.19973 8.79682 7.19973C8.57295 7.19973 8.20899 7.28328 7.901 7.61814C7.59317 7.95284 6.72549 8.76149 6.72549 10.407C6.72549 12.0524 7.92915 13.6421 8.09705 13.8652C8.26496 14.0883 10.4658 17.465 13.8353 18.9129C14.6368 19.2576 15.2623 19.4631 15.7503 19.6172C16.5551 19.8716 17.2871 19.8357 17.866 19.7497C18.5115 19.6536 19.8533 18.9409 20.1334 18.1601C20.4133 17.3791 20.4133 16.7099 20.3291 16.5703C20.2454 16.4309 20.0213 16.3473 19.6855 16.1799Z" fill="#0094FF"/>
</svg>
